<svg xmlns="http://www.w3.org/2000/svg" viewBox="0 0 512 512">
  <defs>
    <radialGradient id="glow" cx="50%" cy="38%" r="42%">
      <stop offset="0%" stop-color="#E8C4A0" stop-opacity="0.35"/>
      <stop offset="100%" stop-color="#E8C4A0" stop-opacity="0"/>
    </radialGradient>
    <linearGradient id="bg" x1="0" y1="0" x2="1" y2="1">
      <stop offset="0%" stop-color="#1A1030"/>
      <stop offset="100%" stop-color="#0F0A1A"/>
    </linearGradient>
    <linearGradient id="candleShade" x1="0" x2="1">
      <stop offset="0" stop-color="rgba(0,0,0,0.18)"/>
      <stop offset="0.5" stop-color="rgba(0,0,0,0)"/>
      <stop offset="1" stop-color="rgba(0,0,0,0.22)"/>
    </linearGradient>
  </defs>
  <rect width="512" height="512" rx="96" fill="url(#bg)"/>
  <g opacity="0.5">
    <circle cx="92" cy="110" r="2" fill="#ffffff"/>
    <circle cx="420" cy="80" r="2.5" fill="#ffffff"/>
    <circle cx="380" cy="170" r="1.5" fill="#ffffff"/>
    <circle cx="120" cy="220" r="1.5" fill="#ffffff"/>
    <circle cx="430" cy="280" r="2" fill="#ffffff"/>
    <circle cx="70" cy="340" r="2" fill="#ffffff"/>
    <circle cx="450" cy="420" r="1.5" fill="#ffffff"/>
  </g>
  <circle cx="256" cy="220" r="200" fill="url(#glow)"/>
  <ellipse cx="256" cy="450" rx="90" ry="10" fill="rgba(232,196,160,0.12)"/>
  <rect x="216" y="286" width="80" height="170" rx="14" fill="#E8C4A0"/>
  <rect x="216" y="286" width="80" height="170" rx="14" fill="url(#candleShade)"/>
  <ellipse cx="256" cy="290" rx="40" ry="11" fill="#c9a280"/>
  <rect x="252" y="222" width="8" height="68" fill="#3a2818"/>
  <path d="M256 90 Q220 160 215 222 Q215 274 256 284 Q297 274 297 222 Q292 160 256 90 Z" fill="#E8C4A0" opacity="0.95"/>
  <path d="M256 150 Q235 200 235 240 Q235 266 256 274 Q277 266 277 240 Q277 200 256 150 Z" fill="#F5DFC0"/>
</svg>
